<svg t="1627889545254" class="icon" viewBox="0 0 1024 1024" version="1.1" xmlns="http://www.w3.org/2000/svg" p-id="3411" width="128" height="128"><path d="M548.599926 556.650583h-72.764782a64.784129 64.784129 0 0 0-64.784128 64.784128v146.70319a64.784129 64.784129 0 0 0 64.784128 64.784129v191.066234h72.764782V832.910293a64.784129 64.784129 0 0 0 64.784129-64.784128v-146.70319a64.784129 64.784129 0 0 0-64.784129-64.772392z m0 211.487318h-72.764782v-146.70319h72.764782z" p-id="3412" fill="#e6e6e6"></path><path d="M927.540133 701.546389A506.466356 506.466356 0 0 0 799.063348 542.214989a347.099747 347.099747 0 1 0-574.125867 0A506.442883 506.442883 0 0 0 96.460696 701.546389C57.355494 777.19829 36.676212 863.236777 36.676212 950.354999a556.568429 556.568429 0 0 0 4.870546 73.645001h73.562847A479.543386 479.543386 0 0 1 109.440994 950.354999c0-151.256857 70.041971-290.026338 187.298896-371.206015l33.178394-22.991324-26.265739-30.631626a274.299756 274.299756 0 0 1-65.992963-178.44976c0-151.268593 123.066372-274.334965 274.334964-274.334964s274.334965 123.113317 274.334965 274.358437a274.299756 274.299756 0 0 1-65.992963 178.44976l-26.254003 30.608153 33.178394 22.967851C844.541337 660.328661 914.548099 799.098142 914.548099 950.343263a479.543386 479.543386 0 0 1-5.668611 73.645001h73.562847a556.568429 556.568429 0 0 0 4.870546-73.645001c0-87.106486-20.667545-173.133236-59.772748-248.796874z" p-id="3413" fill="#e6e6e6"></path></svg>