<svg t="1627890088319" class="icon" viewBox="0 0 1024 1024" version="1.1" xmlns="http://www.w3.org/2000/svg" p-id="972" width="128" height="128"><path d="M903.1982 1024H120.545864A120.545864 120.545864 0 0 1 0 903.795384V120.716488A120.545864 120.545864 0 0 1 120.545864 0.511872H207.308173a51.869699 51.869699 0 1 1 0 103.739399H120.545864a16.465217 16.465217 0 0 0-16.55053 16.465217v783.420145a16.550529 16.550529 0 0 0 16.55053 16.465217h782.652336a16.550529 16.550529 0 0 0 16.465217-16.465217V120.716488a16.465217 16.465217 0 0 0-16.465217-16.465217H816.435891a51.869699 51.869699 0 1 1 0-103.739399h86.762309A120.545864 120.545864 0 0 1 1023.744064 120.716488v783.420145A120.545864 120.545864 0 0 1 903.1982 1024z" fill="#e6e6e6" p-id="973"></path><path d="M639.41348 105.530951H383.989336a52.637507 52.637507 0 0 1 0-105.189703h255.168208a52.637507 52.637507 0 0 1 0 105.189703z" fill="#e6e6e6" p-id="974"></path><path d="M768.31992 437.650587H256.021328a52.637507 52.637507 0 0 1 0-105.189702h512.298592a52.637507 52.637507 0 0 1 0 105.189702z" fill="#e6e6e6" p-id="975"></path><path d="M768.31992 648.456553H256.021328a52.637507 52.637507 0 0 1 0-105.189703h512.298592a52.637507 52.637507 0 0 1 0 105.189703z" fill="#e6e6e6" p-id="976"></path></svg>