<svg t="1627889983492" class="icon" viewBox="0 0 1024 1024" version="1.1" xmlns="http://www.w3.org/2000/svg" p-id="827" width="128" height="128"><path d="M640 1024H64C28.65664 1024 0 995.34336 0 960v-896C0 28.65664 28.65664 0 64 0H640c35.34336 0 64 28.65664 64 64V256h256c35.34336 0 64 28.65664 64 64v640c0 35.34336-28.65664 64-64 64H640z m64-76.76928h243.23072V332.76928H704v614.46144z m-627.23072 0h550.46144V76.76928H76.76928v870.46144zM384 768v-128h128v128H384z m-192 0v-128h128v128h-128zM384 576v-128h128v128H384z m-192 0v-128h128v128h-128zM384 384V256h128v128H384z m-192 0V256h128v128h-128z" fill="#e6e6e6" p-id="828"></path></svg>