<svg t="1627890327318" class="icon" viewBox="0 0 1024 1024" version="1.1" xmlns="http://www.w3.org/2000/svg" p-id="1009" width="128" height="128"><path d="M416.08704 960h191.926857v-108.763429c0-12.763429 6.436571-25.6 19.2-32.036571 32-12.763429 63.926857-32.036571 89.526857-51.236571 12.763429-6.436571 25.6-6.436571 38.363429 0l95.963428 57.563428 95.963429-166.436571-95.963429-57.563429c-12.763429-12.653714-19.163429-25.490286-12.763428-38.253714 0-19.2 6.436571-32.036571 6.436571-51.236572 0-19.163429 0-32.036571-6.436571-51.2 0-12.763429 6.436571-25.636571 12.763428-32.073142l95.963429-57.526858L851.067611 204.8l-95.963428 57.563429c-12.763429 6.4-25.6 6.4-38.363429 0-25.6-19.2-57.526857-38.4-89.526857-51.236572-12.763429-12.763429-19.2-25.6-19.2-38.363428V64.073143h-191.926857v108.8c0 12.726857-6.436571 25.6-19.2 32.036571-32 12.726857-63.926857 32.036571-89.526857 51.2-12.763429 6.436571-25.6 6.436571-38.363429 0l-95.963428-51.2-95.963429 166.326857 95.963429 57.526858c12.763429 6.436571 19.163429 19.2 12.763428 32.073142 0 19.163429-6.436571 32.036571-6.436571 51.2 0 19.2 0 32.036571 6.436571 51.236572 6.4 12.763429 0 25.6-12.763428 32.036571l-95.963429 57.563429 95.963429 166.436571 95.963428-57.563428c12.763429-6.436571 25.6-6.436571 38.363429 0 25.6 19.163429 57.526857 38.363429 89.526857 51.236571a35.254857 35.254857 0 0 1 19.2 32.036572v114.980571zM639.940754 1024h-255.780571c-19.2 0-32.036571-12.763429-32.036572-32.036571v-121.526858c-25.6-12.763429-51.2-25.636571-70.363428-38.4l-102.290286 64c-12.763429 6.436571-32.036571 6.436571-44.8-12.763428l-128-223.963429c-12.726857-19.2-6.4-38.4 12.763429-44.8l102.290285-64v-76.836571L19.54304 409.709714c-19.2-6.436571-25.6-25.636571-12.763429-44.8l127.890286-224c6.436571-12.763429 25.6-19.163429 44.8-6.436571l102.290286 64c19.163429-12.763429 44.763429-32.036571 70.363428-38.363429V32.036571c0-19.2 12.763429-32.036571 32.036572-32.036571H640.050469c19.163429 0 32.036571 12.763429 32.036571 32.036571v121.636572c25.6 12.763429 51.2 25.6 70.363429 38.363428l102.290285-63.963428c12.763429-6.436571 32.036571-6.436571 44.763429 12.726857l127.926857 224c12.726857 19.2 6.4 38.363429-12.763429 44.8l-102.290285 63.963429v76.836571l102.290285 64c12.763429 6.436571 19.163429 25.6 12.763429 44.8l-127.926857 223.963429c-6.4 12.763429-25.6 19.2-44.763429 12.763428L742.450469 831.963429c-19.163429 12.726857-44.763429 32.036571-70.363429 38.363428v121.636572c-0.109714 19.273143-12.873143 32.036571-32.146286 32.036571zM512.050469 704.073143c-108.726857 0-191.963429-83.163429-191.963429-192.036572 0-108.873143 83.236571-192.036571 191.963429-192.036571s191.963429 83.273143 191.963428 192.036571c0 108.8-83.236571 192.036571-191.963428 192.036572z m0-320a128.292571 128.292571 0 0 0-127.890286 127.963428A128.256 128.256 0 0 0 512.050469 640a128.256 128.256 0 0 0 127.890285-127.963429A128.292571 128.292571 0 0 0 512.050469 384.073143z" fill="#e6e6e6" p-id="1010"></path></svg>